<?xml version="1.0" encoding="UTF-8" standalone="no"?>
<!DOCTYPE svg PUBLIC "-//W3C//DTD SVG 1.1//EN"
 "http://www.w3.org/Graphics/SVG/1.1/DTD/svg11.dtd">
<!-- Generated by graphviz version 12.0.0 (0)
 -->
<!-- Title: G Pages: 1 -->
<svg width="639pt" height="369pt"
 viewBox="0.00 0.00 639.12 369.48" xmlns="http://www.w3.org/2000/svg" xmlns:xlink="http://www.w3.org/1999/xlink">
<g id="graph0" class="graph" transform="scale(1 1) rotate(0) translate(4 365.48)">
<title>G</title><style>.edge>path:hover{stroke-width:8}</style>
<polygon fill="white" stroke="none" points="-4,4 -4,-365.48 635.12,-365.48 635.12,4 -4,4"/>
<!-- chart_py -->
<g id="node1" class="node">
<title>chart_py</title><style>.edge>path:hover{stroke-width:8}</style>
<ellipse fill="#6a3939" stroke="black" cx="295.98" cy="-18" rx="30.82" ry="18"/>
<text text-anchor="middle" x="295.98" y="-14.5" font-family="Helvetica,sans-Serif" font-size="10.00" fill="#ffffff">chart.py</text>
</g>
<!-- gi -->
<g id="node2" class="node">
<title>gi</title><style>.edge>path:hover{stroke-width:8}</style>
<ellipse fill="#b5d926" stroke="black" cx="83.98" cy="-343.48" rx="27" ry="18"/>
<text text-anchor="middle" x="83.98" y="-339.98" font-family="Helvetica,sans-Serif" font-size="10.00" fill="#000000">gi</text>
</g>
<!-- gi&#45;&gt;chart_py -->
<g id="edge1" class="edge">
<title>gi&#45;&gt;chart_py</title><style>.edge>path:hover{stroke-width:8}</style>
<path fill="none" stroke="black" d="M82.34,-325.14C81.76,-314.71 81.72,-301.23 83.98,-289.48"/>
<path fill="none" stroke="black" d="M83.98,-288.48C89.29,-260.88 46.94,-276.28 31.98,-252.48 3.28,-206.82 -12.59,-180.11 12.98,-132.63"/>
<path fill="none" stroke="black" d="M12.98,-130.63C18.94,-119.31 20.71,-115.05 31.98,-109 84.15,-80.99 296.17,-132.21 295.98,-73"/>
<path fill="none" stroke="black" d="M295.98,-72C295.96,-64.06 295.95,-55.44 295.95,-47.52"/>
<polygon fill="#b5d926" stroke="black" points="299.45,-47.7 295.95,-37.7 292.45,-47.7 299.45,-47.7"/>
</g>
<!-- plotly_gtk__chart -->
<g id="node8" class="node">
<title>plotly_gtk__chart</title><style>.edge>path:hover{stroke-width:8}</style>
<ellipse fill="#8b439d" stroke="black" cx="445.98" cy="-131.63" rx="43.13" ry="22.63"/>
<text text-anchor="middle" x="445.98" y="-134.13" font-family="Helvetica,sans-Serif" font-size="10.00" fill="#ffffff">plotly_gtk.</text>
<text text-anchor="middle" x="445.98" y="-122.13" font-family="Helvetica,sans-Serif" font-size="10.00" fill="#ffffff">_chart</text>
</g>
<!-- gi&#45;&gt;plotly_gtk__chart -->
<g id="edge2" class="edge">
<title>gi&#45;&gt;plotly_gtk__chart</title><style>.edge>path:hover{stroke-width:8}</style>
<path fill="none" stroke="black" d="M83.98,-288.48C83.98,-284.19 306.08,-191 402.35,-150.81"/>
<polygon fill="#b5d926" stroke="black" points="403.62,-154.07 411.5,-146.99 400.92,-147.61 403.62,-154.07"/>
</g>
<!-- plotly_gtk_utils -->
<g id="node9" class="node">
<title>plotly_gtk_utils</title><style>.edge>path:hover{stroke-width:8}</style>
<ellipse fill="#992db4" stroke="black" cx="83.98" cy="-221.37" rx="43.13" ry="22.63"/>
<text text-anchor="middle" x="83.98" y="-223.87" font-family="Helvetica,sans-Serif" font-size="10.00" fill="#ffffff">plotly_gtk.</text>
<text text-anchor="middle" x="83.98" y="-211.87" font-family="Helvetica,sans-Serif" font-size="10.00" fill="#ffffff">utils</text>
</g>
<!-- gi&#45;&gt;plotly_gtk_utils -->
<g id="edge3" class="edge">
<title>gi&#45;&gt;plotly_gtk_utils</title><style>.edge>path:hover{stroke-width:8}</style>
<path fill="none" stroke="black" d="M83.98,-288.48C83.98,-277.81 83.98,-266.16 83.98,-255.66"/>
<polygon fill="#b5d926" stroke="black" points="87.48,-255.92 83.98,-245.92 80.48,-255.92 87.48,-255.92"/>
</g>
<!-- gi_repository -->
<g id="node3" class="node">
<title>gi_repository</title><style>.edge>path:hover{stroke-width:8}</style>
<ellipse fill="#b1ce3b" stroke="black" cx="480.98" cy="-343.48" rx="41.64" ry="18"/>
<text text-anchor="middle" x="480.98" y="-339.98" font-family="Helvetica,sans-Serif" font-size="10.00" fill="#000000">gi.repository</text>
</g>
<!-- gi_repository&#45;&gt;chart_py -->
<g id="edge4" class="edge">
<title>gi_repository&#45;&gt;chart_py</title><style>.edge>path:hover{stroke-width:8}</style>
<path fill="none" stroke="black" d="M480.98,-220.37C481.1,-178.22 542.55,-166.13 516.98,-132.63"/>
<path fill="none" stroke="black" d="M516.98,-130.63C509.22,-120.46 509.13,-115.28 497.98,-109 458.26,-86.61 296.13,-118.6 295.98,-73"/>
</g>
<!-- gi_repository&#45;&gt;plotly_gtk__chart -->
<g id="edge5" class="edge">
<title>gi_repository&#45;&gt;plotly_gtk__chart</title><style>.edge>path:hover{stroke-width:8}</style>
<path fill="none" stroke="black" d="M480.98,-288.48C463.88,-264.59 480.9,-251.75 480.98,-222.37"/>
<path fill="none" stroke="black" d="M480.98,-220.37C481.04,-200.46 473.17,-179.7 464.88,-163.37"/>
<polygon fill="#b1ce3b" stroke="black" points="468.01,-161.8 460.17,-154.67 461.85,-165.13 468.01,-161.8"/>
</g>
<!-- gi_repository&#45;&gt;plotly_gtk_utils -->
<g id="edge6" class="edge">
<title>gi_repository&#45;&gt;plotly_gtk_utils</title><style>.edge>path:hover{stroke-width:8}</style>
<path fill="none" stroke="black" d="M485.78,-325.17C487.81,-313.98 488.27,-299.66 480.98,-289.48"/>
<path fill="none" stroke="black" d="M480.98,-288.48C441.96,-233.96 238.36,-224.03 138.85,-222.47"/>
<polygon fill="#b1ce3b" stroke="black" points="139.09,-218.98 129.04,-222.34 139,-225.98 139.09,-218.98"/>
</g>
<!-- pandas -->
<g id="node4" class="node">
<title>pandas</title><style>.edge>path:hover{stroke-width:8}</style>
<ellipse fill="#40c073" stroke="black" cx="69.98" cy="-131.63" rx="28.56" ry="18"/>
<text text-anchor="middle" x="69.98" y="-128.13" font-family="Helvetica,sans-Serif" font-size="10.00" fill="#000000">pandas</text>
</g>
<!-- pandas&#45;&gt;chart_py -->
<g id="edge7" class="edge">
<title>pandas&#45;&gt;chart_py</title><style>.edge>path:hover{stroke-width:8}</style>
<path fill="none" stroke="black" d="M89.11,-118.12C94.97,-114.74 101.57,-111.36 107.98,-109 147.89,-94.28 296.12,-115.54 295.98,-73"/>
</g>
<!-- plotly -->
<g id="node5" class="node">
<title>plotly</title><style>.edge>path:hover{stroke-width:8}</style>
<ellipse fill="#4073c0" stroke="black" cx="143.98" cy="-131.63" rx="27" ry="18"/>
<text text-anchor="middle" x="143.98" y="-128.13" font-family="Helvetica,sans-Serif" font-size="10.00" fill="#ffffff">plotly</text>
</g>
<!-- plotly&#45;&gt;chart_py -->
<g id="edge8" class="edge">
<title>plotly&#45;&gt;chart_py</title><style>.edge>path:hover{stroke-width:8}</style>
<path fill="none" stroke="black" d="M162.58,-118.3C168.04,-115 174.13,-111.62 179.98,-109 229.25,-86.94 296.15,-126.98 295.98,-73"/>
</g>
<!-- plotly_graph_objects -->
<g id="node6" class="node">
<title>plotly_graph_objects</title><style>.edge>path:hover{stroke-width:8}</style>
<ellipse fill="#537bb6" stroke="black" cx="242.98" cy="-131.63" rx="54.27" ry="22.63"/>
<text text-anchor="middle" x="242.98" y="-134.13" font-family="Helvetica,sans-Serif" font-size="10.00" fill="#ffffff">plotly.</text>
<text text-anchor="middle" x="242.98" y="-122.13" font-family="Helvetica,sans-Serif" font-size="10.00" fill="#ffffff">graph_objects</text>
</g>
<!-- plotly_graph_objects&#45;&gt;chart_py -->
<g id="edge9" class="edge">
<title>plotly_graph_objects&#45;&gt;chart_py</title><style>.edge>path:hover{stroke-width:8}</style>
<path fill="none" stroke="black" d="M272.63,-112.43C284.78,-102.54 296.03,-89.04 295.98,-73"/>
</g>
<!-- plotly_gtk -->
<g id="node7" class="node">
<title>plotly_gtk</title><style>.edge>path:hover{stroke-width:8}</style>
<ellipse fill="#b82fdb" stroke="black" cx="349.98" cy="-131.63" rx="34.88" ry="18"/>
<text text-anchor="middle" x="349.98" y="-128.13" font-family="Helvetica,sans-Serif" font-size="10.00" fill="#ffffff">plotly_gtk</text>
</g>
<!-- plotly_gtk&#45;&gt;chart_py -->
<g id="edge10" class="edge">
<title>plotly_gtk&#45;&gt;chart_py</title><style>.edge>path:hover{stroke-width:8}</style>
<path fill="none" stroke="black" d="M326.81,-117.68C312.19,-107.63 296.04,-92.2 295.98,-73"/>
</g>
<!-- plotly_gtk__chart&#45;&gt;chart_py -->
<g id="edge11" class="edge">
<title>plotly_gtk__chart&#45;&gt;chart_py</title><style>.edge>path:hover{stroke-width:8}</style>
<path fill="none" stroke="black" d="M413.06,-116.69C406.74,-114.09 400.17,-111.42 393.98,-109 350.77,-92.09 296.13,-119.4 295.98,-73"/>
</g>
<!-- plotly_gtk_utils&#45;&gt;chart_py -->
<g id="edge12" class="edge">
<title>plotly_gtk_utils&#45;&gt;chart_py</title><style>.edge>path:hover{stroke-width:8}</style>
<path fill="none" stroke="black" d="M55.24,-204.25C29.57,-187.6 -1.89,-160.23 12.98,-132.63"/>
</g>
<!-- plotly_gtk_utils&#45;&gt;plotly_gtk__chart -->
<g id="edge13" class="edge">
<title>plotly_gtk_utils&#45;&gt;plotly_gtk__chart</title><style>.edge>path:hover{stroke-width:8}</style>
<path fill="none" stroke="black" d="M111.26,-203.51C120.41,-198.53 130.87,-193.54 140.98,-190.25 249.02,-155.21 284.45,-184.3 393.98,-154.25 397.12,-153.39 400.32,-152.39 403.52,-151.3"/>
<polygon fill="#992db4" stroke="black" points="404.68,-154.6 412.83,-147.84 402.24,-148.04 404.68,-154.6"/>
</g>
<!-- plotly_gtk_utils_ticks -->
<g id="node10" class="node">
<title>plotly_gtk_utils_ticks</title><style>.edge>path:hover{stroke-width:8}</style>
<ellipse fill="#a253b6" stroke="black" cx="551.98" cy="-221.37" rx="43.13" ry="31.11"/>
<text text-anchor="middle" x="551.98" y="-229.87" font-family="Helvetica,sans-Serif" font-size="10.00" fill="#ffffff">plotly_gtk.</text>
<text text-anchor="middle" x="551.98" y="-217.87" font-family="Helvetica,sans-Serif" font-size="10.00" fill="#ffffff">utils.</text>
<text text-anchor="middle" x="551.98" y="-205.87" font-family="Helvetica,sans-Serif" font-size="10.00" fill="#ffffff">ticks</text>
</g>
<!-- plotly_gtk_utils_ticks&#45;&gt;chart_py -->
<g id="edge14" class="edge">
<title>plotly_gtk_utils_ticks&#45;&gt;chart_py</title><style>.edge>path:hover{stroke-width:8}</style>
<path fill="none" stroke="black" d="M544.42,-190.25C538.88,-172.28 530.02,-149.71 516.98,-132.63"/>
</g>
<!-- plotly_gtk_widgets -->
<g id="node11" class="node">
<title>plotly_gtk_widgets</title><style>.edge>path:hover{stroke-width:8}</style>
<ellipse fill="#9f3db8" stroke="black" cx="587.98" cy="-131.63" rx="43.13" ry="22.63"/>
<text text-anchor="middle" x="587.98" y="-134.13" font-family="Helvetica,sans-Serif" font-size="10.00" fill="#ffffff">plotly_gtk.</text>
<text text-anchor="middle" x="587.98" y="-122.13" font-family="Helvetica,sans-Serif" font-size="10.00" fill="#ffffff">widgets</text>
</g>
<!-- plotly_gtk_widgets&#45;&gt;chart_py -->
<g id="edge15" class="edge">
<title>plotly_gtk_widgets&#45;&gt;chart_py</title><style>.edge>path:hover{stroke-width:8}</style>
<path fill="none" stroke="black" d="M554.91,-116.73C547.16,-113.86 538.86,-111.07 530.98,-109 479.89,-95.55 296.15,-125.83 295.98,-73"/>
</g>
</g>
</svg>
